<svg width="62" height="62" viewBox="0 0 62 62" fill="none" xmlns="http://www.w3.org/2000/svg">
<g id="Calque_2" clip-path="url(#clip0_445_18416)">
<path id="Vector" d="M17.0801 14.88H44.4201" stroke="white" stroke-width="2.5" stroke-miterlimit="10" stroke-linecap="round"/>
<path id="Vector_2" d="M20.54 20.84H40.95" stroke="white" stroke-width="2.5" stroke-miterlimit="10" stroke-linecap="round"/>
<path id="Vector_3" d="M40.79 37.89C40.79 43.44 36.29 47.93 30.75 47.93C25.21 47.93 20.71 43.43 20.71 37.89C20.71 32.35 25.21 27.85 30.75 27.85C36.29 27.85 40.79 32.35 40.79 37.89Z" stroke="white" stroke-width="2.5" stroke-linejoin="round"/>
<path id="Vector_4" d="M32.6399 48.16L38.2399 60.05L39.7699 53.8L45.6299 56.4L39.4199 43.44" stroke="white" stroke-width="2.5" stroke-linejoin="round"/>
<path id="Vector_5" d="M28.8601 48.16L23.2601 60.05L21.7301 53.8L15.8701 56.4L20.2501 47.39" stroke="white" stroke-width="2.5" stroke-linejoin="round"/>
<path id="Vector_6" d="M35.46 37.89C35.46 40.49 33.35 42.6 30.75 42.6C28.15 42.6 26.04 40.49 26.04 37.89C26.04 35.29 28.15 33.18 30.75 33.18C33.35 33.18 35.46 35.29 35.46 37.89Z" stroke="white" stroke-width="2.5" stroke-linejoin="round"/>
<path id="Vector_7" d="M16.51 44.58H1.25V1.25H60.25V44.58H45.29" stroke="white" stroke-width="2.5" stroke-miterlimit="10"/>
<path id="Vector_8" d="M6.63989 13.72V6.43H13.9299" stroke="white" stroke-width="2.5" stroke-miterlimit="10"/>
<path id="Vector_9" d="M47.5601 6.43H54.8601V13.72" stroke="white" stroke-width="2.5" stroke-miterlimit="10"/>
<path id="Vector_10" d="M54.8601 32.11V39.4H47.5601" stroke="white" stroke-width="2.5" stroke-miterlimit="10"/>
<path id="Vector_11" d="M13.9299 39.4H6.63989V32.11" stroke="white" stroke-width="2.5" stroke-miterlimit="10"/>
</g>
<defs>
<clipPath id="clip0_445_18416">
<rect width="61.5" height="61.3" fill="white"/>
</clipPath>
</defs>
</svg>
