<svg width="20" height="21" viewBox="0 0 20 21" fill="none" xmlns="http://www.w3.org/2000/svg">
<path d="M10 20.5C4.45312 20.5 0 16.0469 0 10.5C0 4.99219 4.45312 0.5 10 0.5C15.5078 0.5 20 4.99219 20 10.5C20 16.0469 15.5078 20.5 10 20.5ZM14.4141 8.66406H14.375C14.7656 8.3125 14.7656 7.72656 14.375 7.33594C14.0234 6.98438 13.4375 6.98438 13.0859 7.33594L8.75 11.7109L6.91406 9.875C6.52344 9.48438 5.9375 9.48438 5.58594 9.875C5.19531 10.2266 5.19531 10.8125 5.58594 11.1641L8.08594 13.6641C8.4375 14.0547 9.02344 14.0547 9.41406 13.6641L14.4141 8.66406Z" fill="#5FCBEC"/>
</svg>
