<svg width="133" height="23" viewBox="0 0 133 23" fill="none" xmlns="http://www.w3.org/2000/svg">
<g id="Group 8">
<path id="Star 1" d="M11.1052 0L13.5766 7.60633L21.5744 7.60633L15.104 12.3073L17.5755 19.9136L11.1052 15.2127L4.63482 19.9136L7.10627 12.3073L0.635937 7.60633L8.6337 7.60633L11.1052 0Z" fill="white"/>
<path id="Star 2" d="M38.8029 0L41.2744 7.60633L49.2721 7.60633L42.8018 12.3073L45.2732 19.9136L38.8029 15.2127L32.3326 19.9136L34.804 12.3073L28.3337 7.60633L36.3315 7.60633L38.8029 0Z" fill="white"/>
<path id="Star 3" d="M66.5002 0L68.9716 7.60633L76.9694 7.60633L70.4991 12.3073L72.9705 19.9136L66.5002 15.2127L60.0298 19.9136L62.5013 12.3073L56.031 7.60633L64.0287 7.60633L66.5002 0Z" fill="white"/>
<path id="Star 4" d="M94.1974 0L96.6689 7.60633L104.667 7.60633L98.1963 12.3073L100.668 19.9136L94.1974 15.2127L87.7271 19.9136L90.1986 12.3073L83.7282 7.60633L91.726 7.60633L94.1974 0Z" fill="white"/>
<path id="Star 5" d="M121.895 0L124.367 7.60633L132.364 7.60633L125.894 12.3073L128.366 19.9136L121.895 15.2127L115.425 19.9136L117.896 12.3073L111.426 7.60633L119.424 7.60633L121.895 0Z" fill="white"/>
</g>
</svg>
