<svg width="198" height="114" viewBox="0 0 198 114" fill="none" xmlns="http://www.w3.org/2000/svg">
<g clip-path="url(#clip0_733_820)">
<path d="M12.3786 70.042H16.9914V71.09H11.2108V61.3086H12.3786V70.042Z" fill="white"/>
<path d="M26.509 69.1103H21.7794L20.962 71.0899H19.7358L23.9398 61.1338H24.3486L28.5526 71.0899H27.3265L26.509 69.1103ZM24.115 63.2298L22.1882 68.0623H26.1003L24.115 63.2298Z" fill="white"/>
<mask id="mask0_733_820" style="mask-type:luminance" maskUnits="userSpaceOnUse" x="0" y="0" width="198" height="114">
<path d="M198 0H0V114H198V0Z" fill="white"/>
</mask>
<g mask="url(#mask0_733_820)">
<path d="M36.7856 61.5992C37.3111 61.8903 37.7198 62.2979 38.0702 62.8219L37.2527 63.4623C36.7272 62.6472 35.9682 62.2396 35.0339 62.2396C34.5668 62.2396 34.1581 62.3561 33.8077 62.589C33.4574 62.8219 33.2822 63.1712 33.2822 63.637C33.2822 63.8699 33.3406 64.0446 33.399 64.2192C33.4574 64.3939 33.5742 64.5103 33.7493 64.685C33.9245 64.8014 34.0997 64.9179 34.2165 64.9761C34.3332 65.0343 34.5668 65.1508 34.8587 65.2672L35.9098 65.7912C36.6688 66.1406 37.2527 66.5481 37.6031 66.9557C37.9534 67.3632 38.187 67.8872 38.187 68.5277C38.187 69.3428 37.895 69.9833 37.3111 70.5073C36.7272 71.0313 35.9682 71.2642 35.0339 71.2642C34.2748 71.2642 33.5742 71.0895 32.9903 70.6819C32.348 70.3326 31.8809 69.8086 31.4721 69.1099L32.348 68.4695C33.0487 69.5757 33.9829 70.1579 35.0339 70.1579C35.6178 70.1579 36.0849 69.9833 36.4353 69.6921C36.7856 69.401 36.9608 68.9935 36.9608 68.5277C36.9608 68.1201 36.844 67.7708 36.6104 67.5379C36.3769 67.305 35.9682 67.0721 35.3843 66.781L34.2748 66.257C33.5742 65.9077 33.0487 65.5583 32.6399 65.1508C32.2312 64.7432 32.056 64.2192 32.056 63.637C32.056 62.8801 32.348 62.2396 32.9319 61.7739C33.5158 61.3081 34.2165 61.0752 34.9755 61.0752C35.6178 61.1334 36.2601 61.3081 36.7856 61.5992Z" fill="white"/>
</g>
<path d="M49.2226 62.3566H45.836V71.09H44.6682V62.3566H41.2232V61.3086H49.2226V62.3566Z" fill="white"/>
<path d="M53.9522 61.3086H52.7844V71.09H53.9522V61.3086Z" fill="white"/>
<mask id="mask1_733_820" style="mask-type:luminance" maskUnits="userSpaceOnUse" x="0" y="0" width="198" height="114">
<path d="M198 0H0V114H198V0Z" fill="white"/>
</mask>
<g mask="url(#mask1_733_820)">
<path d="M65.2799 61.716C65.9805 62.1236 66.5644 62.5894 66.9732 63.2298L66.0973 63.9285C65.3382 62.764 64.2872 62.1818 62.9443 62.1818C61.8349 62.1818 60.9006 62.5894 60.1999 63.3463C59.4409 64.1031 59.0905 65.0347 59.0905 66.1992C59.0905 67.3636 59.4409 68.2952 60.1999 69.0521C60.959 69.809 61.8349 70.2165 62.9443 70.2165C64.2872 70.2165 65.3382 69.6343 66.0973 68.4698L66.9732 69.1685C66.5644 69.809 66.0389 70.333 65.2799 70.6823C64.5792 71.0899 63.7617 71.2645 62.9443 71.2645C61.5429 71.2645 60.3167 70.7988 59.3825 69.809C58.3898 68.8192 57.9227 67.6547 57.9227 66.1992C57.9227 64.8018 58.3898 63.5791 59.3825 62.5894C60.3751 61.5996 61.5429 61.1338 62.9443 61.1338C63.7617 61.1338 64.5792 61.3085 65.2799 61.716Z" fill="white"/>
</g>
<mask id="mask2_733_820" style="mask-type:luminance" maskUnits="userSpaceOnUse" x="0" y="0" width="198" height="114">
<path d="M198 0H0V114H198V0Z" fill="white"/>
</mask>
<g mask="url(#mask2_733_820)">
<path d="M81.5122 61.5992C82.0377 61.8903 82.4465 62.2979 82.7968 62.8219L81.9793 63.4623C81.4538 62.6472 80.6948 62.2396 79.7605 62.2396C79.2934 62.2396 78.8847 62.3561 78.5343 62.589C78.184 62.8219 78.0672 63.1712 78.0672 63.637C78.0672 63.8699 78.1256 64.0446 78.184 64.2192C78.2424 64.3939 78.3592 64.5103 78.5343 64.685C78.7095 64.8014 78.8263 64.9179 79.0015 64.9761C79.1182 65.0343 79.3518 65.1508 79.6437 65.2672L80.6948 65.7912C81.4538 66.1406 82.0377 66.5481 82.3881 66.9557C82.7384 67.3632 82.972 67.8872 82.972 68.5277C82.972 69.3428 82.68 69.9833 82.0961 70.5073C81.5122 71.0313 80.7532 71.2642 79.8189 71.2642C79.0598 71.2642 78.3592 71.0895 77.7753 70.6819C77.133 70.3326 76.6659 69.8086 76.2571 69.1099L77.133 68.4695C77.8337 69.5757 78.7679 70.1579 79.8189 70.1579C80.4028 70.1579 80.8699 69.9833 81.2203 69.6921C81.5706 69.401 81.7458 68.9935 81.7458 68.5277C81.7458 68.1201 81.629 67.7708 81.3954 67.5379C81.1619 67.305 80.7532 67.0721 80.1693 66.781L79.0598 66.257C78.3592 65.9077 77.8337 65.5583 77.4249 65.1508C77.0162 64.7432 76.841 64.2192 76.841 63.637C76.841 62.8801 77.133 62.2396 77.7169 61.7739C78.3008 61.3081 79.0015 61.0752 79.8189 61.0752C80.4028 61.1334 80.9867 61.3081 81.5122 61.5992Z" fill="white"/>
</g>
<mask id="mask3_733_820" style="mask-type:luminance" maskUnits="userSpaceOnUse" x="0" y="0" width="198" height="114">
<path d="M198 0H0V114H198V0Z" fill="white"/>
</mask>
<g mask="url(#mask3_733_820)">
<path d="M94.65 67.1891C94.65 68.47 94.2996 69.4598 93.5989 70.1584C92.8983 70.8571 91.964 71.2064 90.8546 71.2064C89.6868 71.2064 88.7526 70.8571 88.0519 70.1584C87.3512 69.4598 87.0009 68.47 87.0009 67.1891V61.3086H88.1687V67.3055C88.1687 68.2371 88.4022 68.994 88.9278 69.4598C89.4533 69.9255 90.0955 70.2167 90.913 70.2167C91.7305 70.2167 92.3728 69.9838 92.8399 69.4598C93.3654 68.9358 93.5989 68.2371 93.5989 67.3055V61.3086H94.7667V67.1891H94.65Z" fill="white"/>
</g>
<mask id="mask4_733_820" style="mask-type:luminance" maskUnits="userSpaceOnUse" x="0" y="0" width="198" height="114">
<path d="M198 0H0V114H198V0Z" fill="white"/>
</mask>
<g mask="url(#mask4_733_820)">
<path d="M105.335 71.09L102.299 66.9562H100.197V71.09H99.0292V61.3086H102.416C103.35 61.3086 104.109 61.5997 104.693 62.1237C105.277 62.6477 105.51 63.3464 105.51 64.1615C105.51 64.802 105.335 65.3842 104.985 65.85C104.635 66.3157 104.109 66.6651 103.525 66.8397L106.62 71.09H105.335ZM100.255 65.9664H102.474C103.116 65.9664 103.584 65.7917 103.934 65.5006C104.284 65.1513 104.459 64.7437 104.459 64.2197C104.459 63.6957 104.284 63.2299 103.934 62.9388C103.584 62.5895 103.116 62.4148 102.474 62.4148H100.255V65.9664Z" fill="white"/>
</g>
<mask id="mask5_733_820" style="mask-type:luminance" maskUnits="userSpaceOnUse" x="0" y="0" width="198" height="114">
<path d="M198 0H0V114H198V0Z" fill="white"/>
</mask>
<g mask="url(#mask5_733_820)">
<path d="M116.605 61.6574C117.305 62.0068 117.831 62.5308 118.298 63.113L117.422 63.8117C116.663 62.7054 115.612 62.1814 114.327 62.1814C113.218 62.1814 112.284 62.5308 111.583 63.2877C110.882 64.0445 110.474 64.9761 110.474 66.1406C110.474 67.305 110.824 68.2366 111.583 68.9935C112.342 69.7504 113.276 70.1579 114.386 70.1579C115.086 70.1579 115.729 69.9833 116.254 69.6921C116.838 69.401 117.247 68.9353 117.597 68.4113V67.0721H114.269V66.0241H118.707V68.6441C118.298 69.401 117.656 70.0415 116.897 70.5073C116.137 70.973 115.262 71.2059 114.269 71.2059C112.868 71.2059 111.641 70.7402 110.707 69.7504C109.715 68.7606 109.247 67.5961 109.247 66.1406C109.247 64.7432 109.715 63.5205 110.707 62.5308C111.7 61.541 112.868 61.0752 114.269 61.0752C115.203 61.1334 115.962 61.3081 116.605 61.6574Z" fill="white"/>
</g>
<path d="M129.1 62.3566H124.02V65.326H127.874V66.374H124.02V70.042H129.217V71.09H122.852V61.3086H129.1V62.3566Z" fill="white"/>
<mask id="mask6_733_820" style="mask-type:luminance" maskUnits="userSpaceOnUse" x="0" y="0" width="198" height="114">
<path d="M198 0H0V114H198V0Z" fill="white"/>
</mask>
<g mask="url(#mask6_733_820)">
<path d="M139.318 71.09L136.282 66.9562H134.18V71.09H133.012V61.3086H136.399C137.333 61.3086 138.092 61.5997 138.676 62.1237C139.26 62.6477 139.493 63.3464 139.493 64.1615C139.493 64.802 139.318 65.3842 138.968 65.85C138.618 66.3157 138.092 66.6651 137.508 66.8397L140.603 71.09H139.318ZM134.238 65.9664H136.457C137.099 65.9664 137.566 65.7917 137.917 65.5006C138.267 65.1513 138.442 64.7437 138.442 64.2197C138.442 63.6957 138.267 63.2299 137.917 62.9388C137.566 62.5895 137.099 62.4148 136.457 62.4148H134.238V65.9664Z" fill="white"/>
</g>
<path d="M147.376 67.0144V71.09H146.267V67.0144L142.88 61.3086H144.165L146.85 65.9082L149.478 61.3086H150.763L147.376 67.0144Z" fill="white"/>
<mask id="mask7_733_820" style="mask-type:luminance" maskUnits="userSpaceOnUse" x="0" y="0" width="198" height="114">
<path d="M198 0H0V114H198V0Z" fill="white"/>
</mask>
<g mask="url(#mask7_733_820)">
<path d="M6.59806 62.0651C7.18196 62.5891 7.41552 63.2878 7.41552 64.1029C7.41552 64.918 7.12357 65.6167 6.59806 66.1407C6.01416 66.6647 5.25509 66.9558 4.32086 66.9558H2.04365V71.0314H0.875854V61.25H4.26247C5.25509 61.3082 6.01416 61.5411 6.59806 62.0651ZM2.04365 62.3562V65.966H4.26247C4.90475 65.966 5.37187 65.7914 5.72221 65.442C6.07255 65.0927 6.24772 64.6851 6.24772 64.1611C6.24772 63.6371 6.07255 63.1714 5.72221 62.8802C5.37187 62.5309 4.90475 62.3562 4.26247 62.3562H2.04365Z" fill="white"/>
</g>
<mask id="mask8_733_820" style="mask-type:luminance" maskUnits="userSpaceOnUse" x="0" y="0" width="198" height="114">
<path d="M198 0H0V114H198V0Z" fill="white"/>
</mask>
<g mask="url(#mask8_733_820)">
<path d="M82.7968 34.6426C81.629 33.8275 80.286 33.4199 78.7679 33.4199H77.3082V54.9623H94.4164L85.7163 38.7764C84.6653 36.6804 83.6727 35.283 82.7968 34.6426Z" fill="white"/>
</g>
<mask id="mask9_733_820" style="mask-type:luminance" maskUnits="userSpaceOnUse" x="0" y="0" width="198" height="114">
<path d="M198 0H0V114H198V0Z" fill="white"/>
</mask>
<g mask="url(#mask9_733_820)">
<path d="M87.9351 23.9877C89.0445 23.7548 90.1539 22.9979 90.8546 22.0663C91.5553 21.193 91.9056 20.145 91.9056 18.9805C91.9056 17.2338 91.3801 15.9529 90.2707 15.0214C89.1613 14.0898 87.1177 13.624 84.1398 13.624H76.9578V24.4534H83.8478C84.6069 24.4534 85.7747 24.4534 87.9351 23.9877Z" fill="white"/>
</g>
<path d="M19.2103 0.174805V53.6814H60.4335V41.5711H35.6178V31.0328H60.4335V20.087H35.6178V11.5864H60.4335V0.174805H19.2103Z" fill="white"/>
<mask id="mask10_733_820" style="mask-type:luminance" maskUnits="userSpaceOnUse" x="0" y="0" width="198" height="114">
<path d="M198 0H0V114H198V0Z" fill="white"/>
</mask>
<g mask="url(#mask10_733_820)">
<path d="M126.881 33.1287H115.437L121.159 14.2063L126.881 33.1287ZM150.295 53.5066L130.326 0H112.459L112.4 0.174668H112.342L108.021 11.6445C108.196 12.6925 108.313 13.857 108.313 15.0215C108.313 17.9908 107.671 20.5526 106.445 22.7068C106.036 23.3473 105.219 24.3953 104.226 25.5598C103.642 26.142 102.007 27.9469 102.007 27.9469C100.898 29.0531 99.8466 30.0429 99.146 30.5087L110.474 49.1399L111.758 44.7732C111.817 44.715 111.875 44.715 111.875 44.6568H130.385L132.837 53.3902C132.895 53.332 133.07 53.5066 133.07 53.5066H150.062H150.295Z" fill="white"/>
</g>
<mask id="mask11_733_820" style="mask-type:luminance" maskUnits="userSpaceOnUse" x="0" y="0" width="198" height="114">
<path d="M198 0H0V114H198V0Z" fill="white"/>
</mask>
<g mask="url(#mask11_733_820)">
<path d="M12.6122 9.54869C12.6122 11.2372 11.2109 12.5763 9.51754 12.5763H3.09466C1.40136 12.5763 0 11.2372 0 9.54869V3.6682C0 1.97975 1.40136 0.640625 3.09466 0.640625H9.57594C11.2692 0.640625 12.6706 1.97975 12.6706 3.6682V9.54869H12.6122Z" fill="white"/>
</g>
<mask id="mask12_733_820" style="mask-type:luminance" maskUnits="userSpaceOnUse" x="0" y="0" width="198" height="114">
<path d="M198 0H0V114H198V0Z" fill="white"/>
</mask>
<g mask="url(#mask12_733_820)">
<path d="M12.729 23.1147C12.729 24.8032 11.3276 26.1423 9.63432 26.1423H3.15304C1.45974 26.1423 0.0583801 24.8032 0.0583801 23.1147V17.176C0.0583801 15.4876 1.45974 14.1484 3.15304 14.1484H9.63432C11.3276 14.1484 12.729 15.4876 12.729 17.176V23.1147Z" fill="white"/>
</g>
<mask id="mask13_733_820" style="mask-type:luminance" maskUnits="userSpaceOnUse" x="0" y="0" width="198" height="114">
<path d="M198 0H0V114H198V0Z" fill="white"/>
</mask>
<g mask="url(#mask13_733_820)">
<path d="M12.729 50.479C12.729 52.1674 11.3276 53.5066 9.63432 53.5066H3.15304C1.45974 53.5066 0.0583801 52.1674 0.0583801 50.479V44.5403C0.0583801 42.8518 1.45974 41.5127 3.15304 41.5127H9.63432C11.3276 41.5127 12.729 42.8518 12.729 44.5403V50.479Z" fill="white"/>
</g>
<mask id="mask14_733_820" style="mask-type:luminance" maskUnits="userSpaceOnUse" x="0" y="0" width="198" height="114">
<path d="M198 0H0V114H198V0Z" fill="white"/>
</mask>
<g mask="url(#mask14_733_820)">
<path d="M12.6122 36.5643C12.6122 38.2528 11.2109 39.5919 9.51754 39.5919H3.09466C1.40136 39.5919 0 38.2528 0 36.5643V30.6838C0 28.9954 1.40136 27.6562 3.09466 27.6562H9.57594C11.2692 27.6562 12.6706 28.9954 12.6706 30.6838V36.5643H12.6122Z" fill="white"/>
</g>
<mask id="mask15_733_820" style="mask-type:luminance" maskUnits="userSpaceOnUse" x="0" y="0" width="198" height="114">
<path d="M198 0H0V114H198V0Z" fill="white"/>
</mask>
<g mask="url(#mask15_733_820)">
<path d="M2.39399 86.3446V92.6908H3.62017C4.6128 92.6908 5.43026 92.3997 6.07255 91.8175C6.71483 91.2353 7.00678 90.4784 7.00678 89.4886C7.00678 88.4988 6.71483 87.7419 6.07255 87.1597C5.48865 86.5775 4.67119 86.3446 3.62017 86.3446H2.39399ZM7.53229 85.8788C8.52492 86.8103 9.05043 88.033 9.05043 89.4886C9.05043 91.0024 8.52492 92.1668 7.53229 93.1566C6.53967 94.0882 5.1967 94.554 3.62017 94.554H0.350342V84.4814H3.62017C5.1967 84.4814 6.53967 84.9472 7.53229 85.8788Z" fill="white"/>
</g>
<mask id="mask16_733_820" style="mask-type:luminance" maskUnits="userSpaceOnUse" x="0" y="0" width="198" height="114">
<path d="M198 0H0V114H198V0Z" fill="white"/>
</mask>
<g mask="url(#mask16_733_820)">
<path d="M15.2397 87.0433V88.8482H14.7142C14.0719 88.8482 13.6048 89.0229 13.2545 89.3722C12.9041 89.7215 12.729 90.1873 12.729 90.8278V94.6122H10.6853V87.0433H12.5538V87.9748C13.0793 87.2762 13.78 86.9851 14.5975 86.9851C14.831 86.9268 15.0646 86.9851 15.2397 87.0433Z" fill="white"/>
</g>
<mask id="mask17_733_820" style="mask-type:luminance" maskUnits="userSpaceOnUse" x="0" y="0" width="198" height="114">
<path d="M198 0H0V114H198V0Z" fill="white"/>
</mask>
<g mask="url(#mask17_733_820)">
<path d="M17.6337 92.3412C17.9257 92.6323 18.0425 92.9234 18.0425 93.3309C18.0425 93.7385 17.9257 94.0878 17.6337 94.3207C17.4002 94.6118 17.0498 94.7283 16.6411 94.7283C16.2324 94.7283 15.882 94.6118 15.6485 94.3207C15.3565 94.0296 15.2397 93.7385 15.2397 93.3309C15.2397 92.9234 15.3565 92.5741 15.6485 92.3412C15.9404 92.05 16.2324 91.9336 16.6411 91.9336C17.0498 91.9336 17.4002 92.05 17.6337 92.3412Z" fill="white"/>
</g>
<mask id="mask18_733_820" style="mask-type:luminance" maskUnits="userSpaceOnUse" x="0" y="0" width="198" height="114">
<path d="M198 0H0V114H198V0Z" fill="white"/>
</mask>
<g mask="url(#mask18_733_820)">
<path d="M26.1003 89.1969H27.7936C28.2607 89.1969 28.611 89.0804 28.903 88.7893C29.1949 88.4982 29.3117 88.1489 29.3117 87.7413C29.3117 87.3338 29.1949 86.9844 28.903 86.6933C28.611 86.4022 28.2607 86.2857 27.7936 86.2857H26.1003V89.1969ZM30.246 94.6116L27.6768 91.06H26.1587V94.6116H24.115V84.5391H27.852C28.903 84.5391 29.7788 84.8302 30.4211 85.4124C31.1218 85.9946 31.4138 86.8098 31.4138 87.7995C31.4138 88.44 31.2386 89.0222 30.9466 89.488C30.6547 89.9538 30.1876 90.3613 29.6621 90.6524L32.4648 94.6116H30.246Z" fill="white"/>
</g>
<mask id="mask19_733_820" style="mask-type:luminance" maskUnits="userSpaceOnUse" x="0" y="0" width="198" height="114">
<path d="M198 0H0V114H198V0Z" fill="white"/>
</mask>
<g mask="url(#mask19_733_820)">
<path d="M35.6178 89.3131C35.2675 89.7207 35.0923 90.1865 35.0923 90.8269C35.0923 91.4092 35.2675 91.9332 35.6178 92.2825C35.9682 92.6901 36.4353 92.8647 37.0192 92.8647C37.5447 92.8647 38.0118 92.6901 38.4205 92.2825C38.7709 91.8749 38.946 91.4092 38.946 90.8269C38.946 90.2447 38.7709 89.7207 38.4205 89.3714C38.0702 88.9638 37.6031 88.7891 37.0192 88.7891C36.4353 88.7309 35.9682 88.9056 35.6178 89.3131ZM39.8219 87.974C40.581 88.7309 40.9897 89.6625 40.9897 90.7687C40.9897 91.8749 40.581 92.8065 39.8219 93.5634C39.0628 94.3203 38.0702 94.7278 36.9608 94.7278C35.8514 94.7278 34.9171 94.3203 34.0997 93.5634C33.3406 92.8065 32.9319 91.8749 32.9319 90.7687C32.9319 89.6625 33.3406 88.7309 34.0997 87.974C34.8587 87.2171 35.8514 86.8096 36.9608 86.8096C38.1286 86.8678 39.0628 87.2171 39.8219 87.974Z" fill="white"/>
</g>
<mask id="mask20_733_820" style="mask-type:luminance" maskUnits="userSpaceOnUse" x="0" y="0" width="198" height="114">
<path d="M198 0H0V114H198V0Z" fill="white"/>
</mask>
<g mask="url(#mask20_733_820)">
<path d="M47.5293 92.3408C47.8797 91.9915 48.1132 91.4674 48.1132 90.7688C48.1132 90.0701 47.9381 89.6043 47.5293 89.1968C47.179 88.8474 46.7119 88.6728 46.1864 88.6728C45.6609 88.6728 45.1937 88.8474 44.785 89.255C44.4347 89.6625 44.2011 90.1283 44.2011 90.7688C44.2011 91.4092 44.3763 91.9332 44.7266 92.2826C45.077 92.6901 45.5441 92.8648 46.128 92.8648C46.7119 92.8648 47.179 92.6901 47.5293 92.3408ZM50.0985 83.1416V94.6115H48.23V93.6799C47.7045 94.4368 46.8871 94.7861 45.836 94.7861C44.785 94.7861 43.9092 94.4368 43.2085 93.6799C42.5078 92.923 42.1575 91.9914 42.1575 90.827C42.1575 89.6625 42.5078 88.731 43.2085 87.9741C43.9092 87.2172 44.785 86.8678 45.836 86.8678C46.7703 86.8678 47.5293 87.159 48.0548 87.7412V83.1416H50.0985Z" fill="white"/>
</g>
<mask id="mask21_733_820" style="mask-type:luminance" maskUnits="userSpaceOnUse" x="0" y="0" width="198" height="114">
<path d="M198 0H0V114H198V0Z" fill="white"/>
</mask>
<g mask="url(#mask21_733_820)">
<path d="M58.2731 87.6833C58.7986 88.2655 59.0321 88.9642 59.0321 89.8957V94.6118H56.9885V90.1869C56.9885 89.7211 56.8717 89.3717 56.5798 89.1389C56.3462 88.8477 55.9959 88.7313 55.5871 88.7313C55.1784 88.7313 54.8281 88.8477 54.5361 89.1389C54.2442 89.43 54.1274 89.7793 54.1274 90.1869V94.6118H52.0837V87.0428H53.9522V87.7415C54.5361 87.1593 55.2368 86.8682 56.171 86.8682C57.1053 86.8682 57.8059 87.1593 58.2731 87.6833Z" fill="white"/>
</g>
<mask id="mask22_733_820" style="mask-type:luminance" maskUnits="userSpaceOnUse" x="0" y="0" width="198" height="114">
<path d="M198 0H0V114H198V0Z" fill="white"/>
</mask>
<g mask="url(#mask22_733_820)">
<path d="M63.2946 88.906C62.9443 89.1971 62.7691 89.5464 62.6523 90.0122H66.0973C66.0973 89.5464 65.9221 89.1971 65.6302 88.906C65.3382 88.6148 64.9295 88.4984 64.5208 88.4984C63.9953 88.4984 63.6449 88.6731 63.2946 88.906ZM67.9074 91.526H62.6523C62.7691 91.9918 63.061 92.3993 63.4114 92.6322C63.7617 92.8651 64.2288 93.0398 64.7543 93.0398C65.5134 93.0398 66.2141 92.8069 66.8564 92.2829L67.7322 93.6802C66.8564 94.4371 65.8638 94.7865 64.7543 94.7865C63.5865 94.7865 62.5939 94.4371 61.8349 93.622C61.0758 92.8651 60.6671 91.9335 60.6671 90.8273C60.6671 89.7211 61.0174 88.7895 61.7765 88.0326C62.5355 87.2757 63.4698 86.8682 64.5792 86.8682C65.6302 86.8682 66.4476 87.2175 67.1483 87.8579C67.7906 88.5566 68.141 89.3717 68.141 90.3615C68.0242 90.7109 67.9658 91.1184 67.9074 91.526Z" fill="white"/>
</g>
<mask id="mask23_733_820" style="mask-type:luminance" maskUnits="userSpaceOnUse" x="0" y="0" width="198" height="114">
<path d="M198 0H0V114H198V0Z" fill="white"/>
</mask>
<g mask="url(#mask23_733_820)">
<path d="M76.7827 87.0426L73.2209 95.252C72.8705 96.0089 72.4618 96.5911 71.9947 96.9987C71.5276 97.348 70.9437 97.5227 70.243 97.5227C69.8343 97.5227 69.3671 97.4645 68.9 97.348V95.6013C69.3671 95.6596 69.6591 95.6596 69.7759 95.6596C70.1262 95.6596 70.4182 95.6013 70.7101 95.4267C70.9437 95.3102 71.1772 95.0191 71.3524 94.6115L71.586 94.0875L68.7249 86.9844H70.8853L72.6954 91.9333L74.6222 86.9844H76.7827V87.0426Z" fill="white"/>
</g>
<mask id="mask24_733_820" style="mask-type:luminance" maskUnits="userSpaceOnUse" x="0" y="0" width="198" height="114">
<path d="M198 0H0V114H198V0Z" fill="white"/>
</mask>
<g mask="url(#mask24_733_820)">
<path d="M91.3801 86.5191L89.9204 87.7418C89.2197 86.752 88.2855 86.2862 87.1177 86.2862C86.1834 86.2862 85.366 86.5773 84.7821 87.2178C84.1982 87.8582 83.9062 88.6151 83.9062 89.6049C83.9062 90.5947 84.1982 91.4098 84.8405 92.0503C85.4244 92.6907 86.2418 92.9818 87.2344 92.9818C88.4022 92.9818 89.2781 92.5743 89.862 91.7591V90.8276H87.1177V89.0809H91.9056V92.0503C91.4385 92.8654 90.7962 93.5058 89.9788 94.0298C89.1613 94.5538 88.1687 94.7867 87.1761 94.7867C85.6579 94.7867 84.4317 94.2627 83.3807 93.2729C82.3297 92.2831 81.8626 91.0022 81.8626 89.5467C81.8626 88.0911 82.3881 86.8102 83.3807 85.8204C84.4317 84.8306 85.6579 84.3066 87.1761 84.3066C88.9278 84.3066 90.3291 85.0635 91.3801 86.5191Z" fill="white"/>
</g>
<mask id="mask25_733_820" style="mask-type:luminance" maskUnits="userSpaceOnUse" x="0" y="0" width="198" height="114">
<path d="M198 0H0V114H198V0Z" fill="white"/>
</mask>
<g mask="url(#mask25_733_820)">
<path d="M98.1533 87.0433V88.8482H97.6278C96.9855 88.8482 96.5184 89.0229 96.1681 89.3722C95.8177 89.7215 95.6426 90.1873 95.6426 90.8278V94.6122H93.5989V87.0433H95.4674V87.9748C95.9929 87.2762 96.6936 86.9851 97.5111 86.9851C97.7446 86.9268 97.9782 86.9851 98.1533 87.0433Z" fill="white"/>
</g>
<mask id="mask26_733_820" style="mask-type:luminance" maskUnits="userSpaceOnUse" x="0" y="0" width="198" height="114">
<path d="M198 0H0V114H198V0Z" fill="white"/>
</mask>
<g mask="url(#mask26_733_820)">
<path d="M101.54 88.906C101.19 89.1971 101.014 89.5464 100.898 90.0122H104.343C104.343 89.5464 104.168 89.1971 103.876 88.906C103.584 88.6148 103.175 88.4984 102.766 88.4984C102.241 88.4984 101.89 88.6731 101.54 88.906ZM106.153 91.526H100.898C101.014 91.9918 101.306 92.3993 101.657 92.6322C102.007 92.8651 102.474 93.0398 103 93.0398C103.759 93.0398 104.459 92.8069 105.102 92.2829L105.978 93.6802C105.102 94.4371 104.109 94.7865 103 94.7865C101.832 94.7865 100.839 94.4371 100.08 93.622C99.3211 92.8651 98.9124 91.9335 98.9124 90.8273C98.9124 89.7211 99.2628 88.7895 100.022 88.0326C100.781 87.2757 101.715 86.8682 102.825 86.8682C103.876 86.8682 104.693 87.2175 105.394 87.8579C106.036 88.5566 106.386 89.3717 106.386 90.3615C106.328 90.7109 106.27 91.1184 106.153 91.526Z" fill="white"/>
</g>
<mask id="mask27_733_820" style="mask-type:luminance" maskUnits="userSpaceOnUse" x="0" y="0" width="198" height="114">
<path d="M198 0H0V114H198V0Z" fill="white"/>
</mask>
<g mask="url(#mask27_733_820)">
<path d="M110.182 88.906C109.831 89.1971 109.656 89.5464 109.539 90.0122H112.984C112.984 89.5464 112.809 89.1971 112.517 88.906C112.225 88.6148 111.817 88.4984 111.408 88.4984C110.882 88.4984 110.532 88.6731 110.182 88.906ZM114.794 91.526H109.539C109.656 91.9918 109.948 92.3993 110.298 92.6322C110.649 92.8651 111.116 93.0398 111.641 93.0398C112.4 93.0398 113.101 92.8069 113.743 92.2829L114.619 93.6802C113.743 94.4371 112.751 94.7865 111.641 94.7865C110.474 94.7865 109.481 94.4371 108.722 93.622C107.963 92.8651 107.554 91.9335 107.554 90.8273C107.554 89.7211 107.904 88.7895 108.664 88.0326C109.423 87.2757 110.357 86.8682 111.466 86.8682C112.517 86.8682 113.335 87.2175 114.035 87.8579C114.678 88.5566 115.028 89.3717 115.028 90.3615C114.911 90.7109 114.853 91.1184 114.794 91.526Z" fill="white"/>
</g>
<mask id="mask28_733_820" style="mask-type:luminance" maskUnits="userSpaceOnUse" x="0" y="0" width="198" height="114">
<path d="M198 0H0V114H198V0Z" fill="white"/>
</mask>
<g mask="url(#mask28_733_820)">
<path d="M122.619 87.6833C123.144 88.2655 123.378 88.9642 123.378 89.8957V94.6118H121.334V90.1869C121.334 89.7211 121.217 89.3717 120.925 89.1389C120.692 88.8477 120.341 88.7313 119.933 88.7313C119.524 88.7313 119.174 88.8477 118.94 89.1389C118.648 89.43 118.531 89.7793 118.531 90.1869V94.6118H116.488V87.0428H118.356V87.7415C118.94 87.1593 119.641 86.8682 120.575 86.8682C121.451 86.8682 122.152 87.1593 122.619 87.6833Z" fill="white"/>
</g>
<path d="M139.201 84.3643V94.6115H137.975V87.3336L134.822 91.7585H134.355L131.144 87.3336V94.6115H129.976V84.3643H130.385L134.589 90.1865L138.793 84.3643H139.201Z" fill="white"/>
<mask id="mask29_733_820" style="mask-type:luminance" maskUnits="userSpaceOnUse" x="0" y="0" width="198" height="114">
<path d="M198 0H0V114H198V0Z" fill="white"/>
</mask>
<g mask="url(#mask29_733_820)">
<path d="M143.289 93.0978C143.464 93.2724 143.581 93.5053 143.581 93.7964C143.581 94.0875 143.464 94.3204 143.289 94.4951C143.114 94.6698 142.88 94.7862 142.588 94.7862C142.354 94.7862 142.121 94.6698 141.887 94.4951C141.712 94.3204 141.595 94.0875 141.595 93.7964C141.595 93.5053 141.712 93.2724 141.887 93.0978C142.063 92.9231 142.296 92.8066 142.588 92.8066C142.88 92.8066 143.114 92.9231 143.289 93.0978Z" fill="white"/>
</g>
<mask id="mask30_733_820" style="mask-type:luminance" maskUnits="userSpaceOnUse" x="0" y="0" width="198" height="114">
<path d="M198 0H0V114H198V0Z" fill="white"/>
</mask>
<g mask="url(#mask30_733_820)">
<path d="M147.201 85.5873V93.5056H148.953C150.237 93.5056 151.288 93.1562 152.047 92.3994C152.806 91.6425 153.157 90.7109 153.157 89.5464C153.157 88.382 152.806 87.3922 152.047 86.6935C151.288 85.9366 150.237 85.5873 148.953 85.5873H147.201ZM152.981 85.8784C153.974 86.81 154.441 88.0327 154.441 89.4882C154.441 90.9438 153.974 92.1665 152.981 93.098C151.989 94.0296 150.704 94.4954 149.011 94.4954H146.033V84.4229H149.011C150.646 84.4811 151.989 84.9469 152.981 85.8784Z" fill="white"/>
</g>
<mask id="mask31_733_820" style="mask-type:luminance" maskUnits="userSpaceOnUse" x="0" y="0" width="198" height="114">
<path d="M198 0H0V114H198V0Z" fill="white"/>
</mask>
<g mask="url(#mask31_733_820)">
<path d="M157.302 93.0978C157.477 93.2724 157.594 93.5053 157.594 93.7964C157.594 94.0875 157.477 94.3204 157.302 94.4951C157.127 94.6698 156.894 94.7862 156.602 94.7862C156.31 94.7862 156.134 94.6698 155.901 94.4951C155.726 94.3204 155.609 94.0875 155.609 93.7964C155.609 93.5053 155.726 93.2724 155.901 93.0978C156.076 92.9231 156.31 92.8066 156.602 92.8066C156.894 92.8066 157.127 92.9231 157.302 93.0978Z" fill="white"/>
</g>
<path d="M170.557 85.5877H165.477V89.0228H169.681V90.129H165.477V94.6122H164.309V84.4814H170.557V85.5877Z" fill="white"/>
<path d="M174.878 86.5191L172.892 91.468H176.863L174.878 86.5191ZM177.33 92.516H172.425L171.549 94.5538H170.323L174.644 84.3066H175.111L179.432 94.5538H178.147L177.33 92.516Z" fill="white"/>
<mask id="mask32_733_820" style="mask-type:luminance" maskUnits="userSpaceOnUse" x="0" y="0" width="198" height="114">
<path d="M198 0H0V114H198V0Z" fill="white"/>
</mask>
<g mask="url(#mask32_733_820)">
<path d="M188.015 84.9467C188.716 85.3543 189.3 85.8783 189.767 86.5187L188.891 87.2174C188.074 86.053 187.023 85.4707 185.621 85.4707C184.512 85.4707 183.519 85.8783 182.76 86.6352C182.001 87.3921 181.592 88.3819 181.592 89.5463C181.592 90.7108 182.001 91.7006 182.76 92.4574C183.519 93.2143 184.454 93.6219 185.621 93.6219C187.023 93.6219 188.074 93.0397 188.891 91.8752L189.767 92.5739C189.358 93.2143 188.774 93.7383 188.074 94.1459C187.315 94.5535 186.556 94.7281 185.621 94.7281C184.162 94.7281 182.935 94.2041 181.943 93.2143C180.95 92.2246 180.425 91.0019 180.425 89.4881C180.425 88.0325 180.95 86.8098 181.943 85.7618C182.935 84.7721 184.162 84.248 185.621 84.248C186.439 84.3645 187.256 84.5392 188.015 84.9467Z" fill="white"/>
</g>
<mask id="mask33_733_820" style="mask-type:luminance" maskUnits="userSpaceOnUse" x="0" y="0" width="198" height="114">
<path d="M198 0H0V114H198V0Z" fill="white"/>
</mask>
<g mask="url(#mask33_733_820)">
<path d="M196.599 84.8303C197.124 85.1215 197.591 85.5872 197.883 86.053L197.007 86.6935C196.423 85.8784 195.664 85.4126 194.73 85.4126C194.263 85.4126 193.796 85.529 193.446 85.8201C193.095 86.053 192.92 86.4606 192.92 86.9264C192.92 87.1593 192.978 87.3339 193.037 87.5086C193.095 87.6833 193.212 87.7997 193.387 87.9744C193.562 88.0908 193.738 88.2073 193.854 88.3237C193.971 88.3819 194.205 88.4984 194.497 88.673L195.606 89.197C196.365 89.5464 197.007 89.9539 197.358 90.4197C197.766 90.8273 197.942 91.4095 197.942 92.05C197.942 92.8651 197.65 93.5638 197.007 94.0878C196.423 94.6118 195.606 94.8446 194.672 94.8446C193.913 94.8446 193.212 94.67 192.57 94.2624C191.927 93.8549 191.402 93.3309 190.993 92.6904L191.869 92.05C192.628 93.2144 193.562 93.7966 194.672 93.7966C195.256 93.7966 195.781 93.622 196.132 93.3309C196.482 93.0397 196.715 92.6322 196.715 92.1082C196.715 91.7006 196.599 91.3513 196.307 91.1184C196.073 90.8855 195.606 90.6526 195.022 90.3615L193.913 89.8375C193.212 89.4882 192.628 89.1388 192.278 88.7313C191.869 88.3237 191.694 87.7997 191.694 87.1593C191.694 86.4024 191.986 85.7619 192.57 85.2379C193.154 84.7721 193.854 84.5392 194.73 84.5392C195.431 84.3646 196.015 84.481 196.599 84.8303Z" fill="white"/>
</g>
<path d="M0.350342 101.017V111.089H7.24034V109.226H2.39399V106.664H5.83899V104.918H2.39399V102.88H7.06518V101.017H0.350342Z" fill="white"/>
<mask id="mask34_733_820" style="mask-type:luminance" maskUnits="userSpaceOnUse" x="0" y="0" width="198" height="114">
<path d="M198 0H0V114H198V0Z" fill="white"/>
</mask>
<g mask="url(#mask34_733_820)">
<path d="M14.1304 104.452L13.0793 105.733C12.5538 105.267 12.0283 105.034 11.386 105.034C10.8605 105.034 10.5686 105.209 10.5686 105.558C10.5686 105.675 10.627 105.849 10.7437 105.907C10.8605 106.024 11.0357 106.082 11.386 106.199L12.0867 106.49C12.7874 106.781 13.3713 107.13 13.6632 107.421C14.0136 107.771 14.1887 108.236 14.1887 108.76C14.1887 109.517 13.8968 110.1 13.3713 110.507C12.8458 110.915 12.1451 111.148 11.2693 111.148C9.92629 111.148 8.87527 110.682 8.17459 109.692L9.22561 108.469C9.8679 109.168 10.5686 109.517 11.3276 109.517C11.6196 109.517 11.8532 109.459 12.0283 109.343C12.2035 109.226 12.3203 109.11 12.3203 108.877C12.3203 108.702 12.2619 108.586 12.1451 108.528C12.0283 108.469 11.8532 108.353 11.5612 108.236L10.7437 107.887C10.0431 107.596 9.51756 107.305 9.22561 106.956C8.87527 106.606 8.7001 106.14 8.7001 105.616C8.7001 104.918 8.93366 104.335 9.45917 103.928C9.98468 103.52 10.627 103.346 11.4444 103.346C12.5538 103.346 13.4297 103.695 14.1304 104.452Z" fill="white"/>
</g>
<mask id="mask35_733_820" style="mask-type:luminance" maskUnits="userSpaceOnUse" x="0" y="0" width="198" height="114">
<path d="M198 0H0V114H198V0Z" fill="white"/>
</mask>
<g mask="url(#mask35_733_820)">
<path d="M20.6116 109.342V111.089C20.1445 111.205 19.6774 111.264 19.2103 111.264C18.276 111.264 17.5169 111.031 16.9914 110.565C16.4659 110.099 16.2324 109.4 16.2324 108.411V105.267H15.0646V103.52H16.2324V101.599H18.276V103.52H20.3781V105.267H18.276V108.236C18.276 108.644 18.3928 108.993 18.6264 109.168C18.8599 109.342 19.2103 109.459 19.6774 109.459C19.7358 109.4 20.0861 109.4 20.6116 109.342Z" fill="white"/>
</g>
<mask id="mask36_733_820" style="mask-type:luminance" maskUnits="userSpaceOnUse" x="0" y="0" width="198" height="114">
<path d="M198 0H0V114H198V0Z" fill="white"/>
</mask>
<g mask="url(#mask36_733_820)">
<path d="M24.2318 105.442C23.8815 105.733 23.7063 106.082 23.5895 106.548H27.0345C27.0345 106.082 26.8593 105.733 26.5674 105.442C26.2754 105.151 25.8667 105.034 25.458 105.034C24.9325 105.034 24.5237 105.151 24.2318 105.442ZM28.7862 108.004H23.5311C23.6479 108.469 23.9399 108.877 24.2902 109.11C24.6405 109.343 25.1076 109.517 25.6332 109.517C26.3922 109.517 27.0929 109.284 27.7352 108.76L28.611 110.158C27.7352 110.915 26.7426 111.264 25.6332 111.264C24.4654 111.264 23.4727 110.856 22.7137 110.1C21.9546 109.343 21.5459 108.411 21.5459 107.305C21.5459 106.199 21.8962 105.267 22.6553 104.51C23.4143 103.753 24.3486 103.346 25.458 103.346C26.509 103.346 27.3265 103.695 28.0271 104.335C28.6694 105.034 29.0198 105.849 29.0198 106.839C28.9614 107.247 28.903 107.596 28.7862 108.004Z" fill="white"/>
</g>
<mask id="mask37_733_820" style="mask-type:luminance" maskUnits="userSpaceOnUse" x="0" y="0" width="198" height="114">
<path d="M198 0H0V114H198V0Z" fill="white"/>
</mask>
<g mask="url(#mask37_733_820)">
<path d="M35.1507 103.52V105.325H34.6252C33.9829 105.325 33.5158 105.499 33.1654 105.849C32.8151 106.198 32.6399 106.664 32.6399 107.304V111.089H30.5963V103.52H32.4648V104.451C32.9903 103.753 33.6909 103.462 34.5084 103.462C34.742 103.403 34.9755 103.462 35.1507 103.52Z" fill="white"/>
</g>
<mask id="mask38_733_820" style="mask-type:luminance" maskUnits="userSpaceOnUse" x="0" y="0" width="198" height="114">
<path d="M198 0H0V114H198V0Z" fill="white"/>
</mask>
<g mask="url(#mask38_733_820)">
<path d="M42.8582 105.674H44.5515C45.0186 105.674 45.3689 105.558 45.6609 105.267C45.9528 104.976 46.0696 104.626 46.0696 104.219C46.0696 103.811 45.9528 103.462 45.6609 103.171C45.3689 102.88 45.0186 102.763 44.5515 102.763H42.8582V105.674ZM46.9454 111.089L44.3763 107.538H42.8582V111.089H40.8145V101.017H44.5515C45.6025 101.017 46.4783 101.308 47.1206 101.89C47.7629 102.472 48.1132 103.287 48.1132 104.277C48.1132 104.918 47.9381 105.5 47.6461 105.966C47.3542 106.431 46.8871 106.839 46.3616 107.13L49.2227 111.089H46.9454Z" fill="white"/>
</g>
<mask id="mask39_733_820" style="mask-type:luminance" maskUnits="userSpaceOnUse" x="0" y="0" width="198" height="114">
<path d="M198 0H0V114H198V0Z" fill="white"/>
</mask>
<g mask="url(#mask39_733_820)">
<path d="M54.0106 109.342C54.3025 109.051 54.4777 108.701 54.4777 108.294V108.177H52.8428C52.1421 108.177 51.7918 108.41 51.7918 108.934C51.7918 109.167 51.9086 109.4 52.0837 109.517C52.2589 109.691 52.5509 109.749 52.8428 109.749C53.3099 109.749 53.6603 109.633 54.0106 109.342ZM55.5871 104.16C56.171 104.742 56.463 105.499 56.463 106.547V111.03H54.5945V110.273C54.0106 110.914 53.2515 111.205 52.3173 111.205C51.4998 111.205 50.9159 110.972 50.4488 110.565C49.9817 110.157 49.7481 109.575 49.7481 108.934C49.7481 108.236 49.9817 107.712 50.5072 107.304C51.0327 106.897 51.7334 106.722 52.5509 106.722H54.4193V106.373C54.4193 105.965 54.3025 105.616 54.069 105.383C53.8354 105.15 53.4851 105.033 53.018 105.033C52.3757 105.033 51.675 105.383 51.0327 106.081L49.9817 104.801C50.8575 103.753 51.967 103.229 53.2515 103.229C54.2442 103.345 55.0032 103.636 55.5871 104.16Z" fill="white"/>
</g>
<mask id="mask40_733_820" style="mask-type:luminance" maskUnits="userSpaceOnUse" x="0" y="0" width="198" height="114">
<path d="M198 0H0V114H198V0Z" fill="white"/>
</mask>
<g mask="url(#mask40_733_820)">
<path d="M60.4919 111.089H58.4483V103.52H60.4919V111.089ZM60.3751 99.8523C60.6087 100.085 60.7839 100.376 60.7839 100.784C60.7839 101.133 60.6671 101.424 60.3751 101.657C60.1416 101.89 59.7912 102.007 59.4409 102.007C59.0906 102.007 58.7402 101.89 58.5066 101.657C58.2731 101.424 58.1563 101.133 58.1563 100.784C58.1563 100.434 58.2731 100.085 58.5066 99.8523C58.7402 99.6194 59.0906 99.5029 59.4409 99.5029C59.8496 99.5029 60.1416 99.6194 60.3751 99.8523Z" fill="white"/>
</g>
<path d="M68.3745 109.342V111.088H61.7765V110.506L65.3382 105.266H62.1268V103.52H68.3161V104.044L64.7543 109.342H68.3745Z" fill="white"/>
<mask id="mask41_733_820" style="mask-type:luminance" maskUnits="userSpaceOnUse" x="0" y="0" width="198" height="114">
<path d="M198 0H0V114H198V0Z" fill="white"/>
</mask>
<g mask="url(#mask41_733_820)">
<path d="M76.8994 103.52L73.3377 111.73C72.9873 112.486 72.5786 113.069 72.1115 113.476C71.6444 113.826 71.0605 114 70.3598 114C69.9511 114 69.4839 113.942 69.0168 113.826V112.079C69.4839 112.137 69.7759 112.137 69.8927 112.137C70.243 112.137 70.535 112.079 70.8269 111.904C71.0605 111.788 71.294 111.497 71.4692 111.089L71.7027 110.565L68.8416 103.462H71.0021L72.8122 108.411L74.739 103.462H76.8994V103.52Z" fill="white"/>
</g>
<path d="M85.5411 104.684L84.1982 108.061H86.8257L85.5411 104.684ZM87.5848 109.75H83.4975L82.9136 111.089H80.6948L85.1908 100.842H85.8915L90.3291 111.089H88.1687L87.5848 109.75Z" fill="white"/>
<path d="M96.6352 111.089L93.5989 106.897V111.089H91.5553V99.6191H93.5989V106.781L96.3433 103.52H98.7373L95.9345 106.839L98.9708 111.089H96.6352Z" fill="white"/>
<mask id="mask42_733_820" style="mask-type:luminance" maskUnits="userSpaceOnUse" x="0" y="0" width="198" height="114">
<path d="M198 0H0V114H198V0Z" fill="white"/>
</mask>
<g mask="url(#mask42_733_820)">
<path d="M102.065 105.442C101.715 105.733 101.54 106.082 101.423 106.548H104.868C104.868 106.082 104.693 105.733 104.401 105.442C104.109 105.151 103.7 105.034 103.292 105.034C102.766 105.034 102.357 105.151 102.065 105.442ZM106.678 108.004H101.423C101.54 108.469 101.832 108.877 102.182 109.11C102.533 109.343 103 109.517 103.525 109.517C104.284 109.517 104.985 109.284 105.627 108.76L106.503 110.158C105.627 110.915 104.635 111.264 103.525 111.264C102.357 111.264 101.365 110.856 100.606 110.1C99.8467 109.343 99.4379 108.411 99.4379 107.305C99.4379 106.199 99.7883 105.267 100.547 104.51C101.306 103.753 102.241 103.346 103.35 103.346C104.401 103.346 105.219 103.695 105.919 104.335C106.561 105.034 106.912 105.849 106.912 106.839C106.795 107.247 106.737 107.596 106.678 108.004Z" fill="white"/>
</g>
<mask id="mask43_733_820" style="mask-type:luminance" maskUnits="userSpaceOnUse" x="0" y="0" width="198" height="114">
<path d="M198 0H0V114H198V0Z" fill="white"/>
</mask>
<g mask="url(#mask43_733_820)">
<path d="M112.984 103.52V105.325H112.459C111.817 105.325 111.349 105.499 110.999 105.849C110.649 106.198 110.474 106.664 110.474 107.304V111.089H108.43V103.52H110.298V104.451C110.824 103.753 111.525 103.462 112.342 103.462C112.576 103.403 112.809 103.462 112.984 103.52Z" fill="white"/>
</g>
<mask id="mask44_733_820" style="mask-type:luminance" maskUnits="userSpaceOnUse" x="0" y="0" width="198" height="114">
<path d="M198 0H0V114H198V0Z" fill="white"/>
</mask>
<g mask="url(#mask44_733_820)">
<path d="M125.071 104.161C125.597 104.743 125.83 105.442 125.83 106.373V111.089H123.787V106.664C123.787 106.199 123.67 105.849 123.436 105.616C123.203 105.325 122.852 105.209 122.444 105.209C122.035 105.209 121.684 105.325 121.451 105.616C121.217 105.907 121.042 106.199 121.042 106.664V111.089H118.999V106.664C118.999 106.199 118.882 105.849 118.648 105.616C118.415 105.325 118.064 105.209 117.656 105.209C117.247 105.209 116.897 105.325 116.663 105.616C116.429 105.907 116.254 106.257 116.254 106.664V111.089H114.211V103.52H116.079V104.219C116.605 103.637 117.305 103.404 118.181 103.404C119.174 103.404 119.933 103.753 120.4 104.51C121.042 103.811 121.86 103.404 122.911 103.404C123.845 103.346 124.546 103.637 125.071 104.161Z" fill="white"/>
</g>
<mask id="mask45_733_820" style="mask-type:luminance" maskUnits="userSpaceOnUse" x="0" y="0" width="198" height="114">
<path d="M198 0H0V114H198V0Z" fill="white"/>
</mask>
<g mask="url(#mask45_733_820)">
<path d="M131.552 109.342C131.844 109.051 132.019 108.701 132.019 108.294V108.177H130.385C129.684 108.177 129.334 108.41 129.334 108.934C129.334 109.167 129.45 109.4 129.625 109.517C129.801 109.691 130.093 109.749 130.385 109.749C130.852 109.749 131.26 109.633 131.552 109.342ZM133.187 104.16C133.771 104.742 134.063 105.499 134.063 106.547V111.03H132.195V110.273C131.611 110.914 130.852 111.205 129.917 111.205C129.1 111.205 128.516 110.972 128.049 110.565C127.582 110.157 127.348 109.575 127.348 108.934C127.348 108.236 127.582 107.712 128.107 107.304C128.633 106.897 129.334 106.722 130.151 106.722H132.019V106.373C132.019 105.965 131.903 105.616 131.669 105.383C131.436 105.15 131.085 105.033 130.618 105.033C129.976 105.033 129.275 105.383 128.633 106.081L127.582 104.801C128.458 103.753 129.567 103.229 130.852 103.229C131.844 103.345 132.603 103.636 133.187 104.16Z" fill="white"/>
</g>
<mask id="mask46_733_820" style="mask-type:luminance" maskUnits="userSpaceOnUse" x="0" y="0" width="198" height="114">
<path d="M198 0H0V114H198V0Z" fill="white"/>
</mask>
<g mask="url(#mask46_733_820)">
<path d="M142.179 104.161C142.705 104.743 142.938 105.442 142.938 106.373V111.089H140.895V106.664C140.895 106.199 140.778 105.849 140.486 105.616C140.252 105.325 139.902 105.209 139.493 105.209C139.085 105.209 138.734 105.325 138.442 105.616C138.15 105.907 138.034 106.257 138.034 106.664V111.089H136.048V103.52H137.917V104.219C138.501 103.637 139.201 103.346 140.136 103.346C140.953 103.346 141.654 103.637 142.179 104.161Z" fill="white"/>
</g>
<mask id="mask47_733_820" style="mask-type:luminance" maskUnits="userSpaceOnUse" x="0" y="0" width="198" height="114">
<path d="M198 0H0V114H198V0Z" fill="white"/>
</mask>
<g mask="url(#mask47_733_820)">
<path d="M150.646 102.064V105.79H152.923C153.565 105.79 154.032 105.616 154.383 105.266C154.733 104.917 154.908 104.451 154.908 103.927C154.908 103.403 154.733 102.938 154.383 102.588C154.032 102.239 153.565 102.064 152.923 102.064H150.646ZM155.317 101.831C155.901 102.355 156.193 103.054 156.193 103.927C156.193 104.801 155.901 105.499 155.317 106.023C154.733 106.547 153.974 106.839 152.981 106.839H150.646V111.031H149.478V100.958H152.981C153.974 101.016 154.733 101.249 155.317 101.831Z" fill="white"/>
</g>
<path d="M160.572 102.996L158.587 107.945H162.616L160.572 102.996ZM163.024 109.051H158.12L157.244 111.089H156.018L160.339 100.842H160.806L165.127 111.089H163.842L163.024 109.051Z" fill="white"/>
<path d="M169.447 105.791H165.827V106.781H169.447V105.791Z" fill="white"/>
<mask id="mask48_733_820" style="mask-type:luminance" maskUnits="userSpaceOnUse" x="0" y="0" width="198" height="114">
<path d="M198 0H0V114H198V0Z" fill="white"/>
</mask>
<g mask="url(#mask48_733_820)">
<path d="M178.615 101.424C179.315 101.832 179.899 102.356 180.366 102.996L179.49 103.695C178.673 102.53 177.622 101.948 176.221 101.948C175.111 101.948 174.119 102.356 173.359 103.113C172.6 103.87 172.192 104.859 172.192 106.024C172.192 107.188 172.6 108.178 173.359 108.935C174.119 109.75 175.053 110.099 176.221 110.099C177.564 110.099 178.673 109.517 179.49 108.353L180.366 109.051C179.958 109.692 179.374 110.216 178.673 110.623C177.914 111.031 177.155 111.206 176.221 111.206C174.761 111.206 173.535 110.682 172.542 109.692C171.549 108.702 171.024 107.479 171.024 105.966C171.024 104.51 171.549 103.287 172.542 102.239C173.535 101.25 174.761 100.726 176.221 100.726C177.096 100.842 177.855 101.017 178.615 101.424Z" fill="white"/>
</g>
</g>
<defs>
<clipPath id="clip0_733_820">
<rect width="198" height="114" fill="white"/>
</clipPath>
</defs>
</svg>
