<svg width="22" height="24" viewBox="0 0 22 24" fill="none" xmlns="http://www.w3.org/2000/svg">
<path d="M11.5 6.60938C14.4531 6.60938 16.8906 9.04688 16.8906 12C16.8906 15 14.4531 17.3906 11.5 17.3906C8.5 17.3906 6.10938 15 6.10938 12C6.10938 9.04688 8.5 6.60938 11.5 6.60938ZM11.5 15.5156C13.4219 15.5156 14.9688 13.9688 14.9688 12C14.9688 10.0781 13.4219 8.53125 11.5 8.53125C9.53125 8.53125 7.98438 10.0781 7.98438 12C7.98438 13.9688 9.57812 15.5156 11.5 15.5156ZM18.3438 6.42188C18.3438 5.71875 17.7812 5.15625 17.0781 5.15625C16.375 5.15625 15.8125 5.71875 15.8125 6.42188C15.8125 7.125 16.375 7.6875 17.0781 7.6875C17.7812 7.6875 18.3438 7.125 18.3438 6.42188ZM21.9062 7.6875C22 9.42188 22 14.625 21.9062 16.3594C21.8125 18.0469 21.4375 19.5 20.2188 20.7656C19 21.9844 17.5 22.3594 15.8125 22.4531C14.0781 22.5469 8.875 22.5469 7.14062 22.4531C5.45312 22.3594 4 21.9844 2.73438 20.7656C1.51562 19.5 1.14062 18.0469 1.04688 16.3594C0.953125 14.625 0.953125 9.42188 1.04688 7.6875C1.14062 6 1.51562 4.5 2.73438 3.28125C4 2.0625 5.45312 1.6875 7.14062 1.59375C8.875 1.5 14.0781 1.5 15.8125 1.59375C17.5 1.6875 19 2.0625 20.2188 3.28125C21.4375 4.5 21.8125 6 21.9062 7.6875ZM19.6562 18.1875C20.2188 16.8281 20.0781 13.5469 20.0781 12C20.0781 10.5 20.2188 7.21875 19.6562 5.8125C19.2812 4.92188 18.5781 4.17188 17.6875 3.84375C16.2812 3.28125 13 3.42188 11.5 3.42188C9.95312 3.42188 6.67188 3.28125 5.3125 3.84375C4.375 4.21875 3.67188 4.92188 3.29688 5.8125C2.73438 7.21875 2.875 10.5 2.875 12C2.875 13.5469 2.73438 16.8281 3.29688 18.1875C3.67188 19.125 4.375 19.8281 5.3125 20.2031C6.67188 20.7656 9.95312 20.625 11.5 20.625C13 20.625 16.2812 20.7656 17.6875 20.2031C18.5781 19.8281 19.3281 19.125 19.6562 18.1875Z" fill="#5FCBEC"/>
</svg>
