<svg width="21" height="24" viewBox="0 0 21 24" fill="none" xmlns="http://www.w3.org/2000/svg">
<path d="M17.8125 4.59375C19.7812 6.5625 21 9.14062 21 11.9531C21 17.6719 16.2188 22.3594 10.4531 22.3594C8.71875 22.3594 7.03125 21.8906 5.48438 21.0938L0 22.5L1.45312 17.1094C0.5625 15.5625 0.046875 13.7812 0.046875 11.9062C0.046875 6.1875 4.73438 1.5 10.4531 1.5C13.2656 1.5 15.8906 2.625 17.8125 4.59375ZM10.4531 20.5781C15.2344 20.5781 19.2188 16.6875 19.2188 11.9531C19.2188 9.60938 18.2344 7.45312 16.5938 5.8125C14.9531 4.17188 12.7969 3.28125 10.5 3.28125C5.71875 3.28125 1.82812 7.17188 1.82812 11.9062C1.82812 13.5469 2.29688 15.1406 3.14062 16.5469L3.375 16.875L2.48438 20.0625L5.76562 19.1719L6.04688 19.3594C7.40625 20.1562 8.90625 20.5781 10.4531 20.5781ZM15.2344 14.1094C15.4688 14.25 15.6562 14.2969 15.7031 14.4375C15.7969 14.5312 15.7969 15.0469 15.5625 15.6562C15.3281 16.2656 14.2969 16.8281 13.8281 16.875C12.9844 17.0156 12.3281 16.9688 10.6875 16.2188C8.0625 15.0938 6.375 12.4688 6.23438 12.3281C6.09375 12.1406 5.20312 10.9219 5.20312 9.60938C5.20312 8.34375 5.85938 7.73438 6.09375 7.45312C6.32812 7.17188 6.60938 7.125 6.79688 7.125C6.9375 7.125 7.125 7.125 7.26562 7.125C7.45312 7.125 7.64062 7.07812 7.875 7.59375C8.0625 8.10938 8.625 9.375 8.67188 9.51562C8.71875 9.65625 8.76562 9.79688 8.67188 9.98438C8.20312 10.9688 7.64062 10.9219 7.92188 11.3906C8.95312 13.125 9.9375 13.7344 11.4844 14.4844C11.7188 14.625 11.8594 14.5781 12.0469 14.4375C12.1875 14.25 12.7031 13.6406 12.8438 13.4062C13.0312 13.125 13.2188 13.1719 13.4531 13.2656C13.6875 13.3594 14.9531 13.9688 15.2344 14.1094Z" fill="#5FCBEC"/>
</svg>
