<svg xmlns="http://www.w3.org/2000/svg" width="35" height="35" viewBox="0 0 35 35">
  <g id="Group_18171" data-name="Group 18171" transform="translate(-943.5 -2200.5)">
    <circle id="Ellipse_26" data-name="Ellipse 26" cx="16.5" cy="16.5" r="16.5" transform="translate(944.5 2201.5)" fill="none" stroke="#06518e" stroke-width="2"/>
    <path id="exclamation" d="M3.531,1.5v9a1.133,1.133,0,0,1-1.125,1.125A1.111,1.111,0,0,1,1.281,10.5v-9A1.133,1.133,0,0,1,2.406.375,1.157,1.157,0,0,1,3.531,1.5ZM2.406,16.125a1.349,1.349,0,0,1-1.23-.7,1.406,1.406,0,0,1,1.23-2.109,1.4,1.4,0,0,1,1.2.7,1.431,1.431,0,0,1,0,1.406A1.333,1.333,0,0,1,2.406,16.125Z" transform="translate(958.009 2209.625)" fill="#06518e"/>
  </g>
</svg>
