<svg width="59" height="59" viewBox="0 0 59 59" fill="none" xmlns="http://www.w3.org/2000/svg">
<g id="Group 12">
<path id="Vector" d="M29.7275 57.1488C45.041 57.1488 57.455 44.7971 57.455 29.5606C57.455 14.3241 45.041 1.97241 29.7275 1.97241C14.414 1.97241 2 14.3241 2 29.5606C2 44.7971 14.414 57.1488 29.7275 57.1488Z" stroke="white" stroke-width="2.5" stroke-miterlimit="10"/>
<path id="Vector_2" d="M45.7297 30.9898C45.7297 30.6995 45.8314 30.4532 46.0347 30.2509C46.2381 30.0486 46.4856 29.9474 46.7774 29.9474H49.1689L48.7622 28.7973C48.5964 28.3728 48.4307 27.9704 48.2693 27.5921C48.108 27.2139 47.9223 26.8686 47.7145 26.5585C47.5267 26.2485 47.3145 26.0813 47.0736 26.0615C46.8238 26.0813 46.5984 26.2485 46.4016 26.5585C46.2027 26.8686 46.0237 27.2139 45.8623 27.5921C45.701 27.9704 45.5374 28.3728 45.3695 28.7973L43.8842 32.8393C43.7803 33.057 43.6477 33.2351 43.4863 33.3759C43.325 33.5166 43.0819 33.5848 42.7592 33.5848C42.4564 33.5848 42.2088 33.4814 42.0165 33.2747C41.8242 33.068 41.738 32.8195 41.7579 32.5292C41.769 32.395 41.7999 32.2697 41.8508 32.1553L43.5703 27.7395C44.0499 26.5783 44.5296 25.6393 45.007 24.9246C45.4756 24.2187 46.1629 23.8624 47.0691 23.8514C47.9643 23.8624 48.6495 24.2165 49.1247 24.9158C49.5977 25.6151 50.0751 26.5563 50.5547 27.7373L52.2743 32.1531C52.3273 32.2675 52.3583 32.3906 52.3671 32.527C52.387 32.8173 52.303 33.0658 52.1085 33.2725C51.9162 33.4792 51.6687 33.5826 51.3659 33.5826C51.0211 33.5826 50.7691 33.5122 50.6077 33.3737C50.4464 33.2329 50.3138 33.0548 50.2099 32.8371L49.9137 32.0278H46.773C46.4812 32.0278 46.2359 31.9244 46.0392 31.7177C45.8314 31.522 45.7275 31.2779 45.7275 30.9876L45.7297 30.9898Z" fill="white"/>
<path id="Vector_3" d="M32.225 32.5778C32.1632 33.2002 31.8184 33.5366 31.1929 33.5894C30.9011 33.5894 30.6491 33.4927 30.4347 33.3013C30.2203 33.11 30.1143 32.8681 30.1143 32.5778V25.2393C30.1253 24.949 30.2336 24.7071 30.4436 24.5158C30.6513 24.3245 30.9011 24.2277 31.1929 24.2277H37.7573C38.6745 24.2585 39.3663 24.4586 39.8349 24.8259C40.3035 25.1931 40.6417 25.611 40.8516 26.0772C41.0594 26.5434 41.1633 27.0162 41.1633 27.4912C41.1633 27.9662 41.0616 28.4698 40.8583 28.9382C40.6549 29.4045 40.3167 29.8223 39.8415 30.1896C39.3663 30.5568 38.7652 30.7371 38.0358 30.7261H34.0971C33.8054 30.7261 33.56 30.6228 33.3633 30.4161C33.1556 30.2203 33.0517 29.9762 33.0517 29.686C33.0517 29.3957 33.1533 29.1494 33.3567 28.947C33.56 28.7447 33.8076 28.6436 34.0993 28.6436H38.1308C38.3297 28.6436 38.4933 28.5798 38.6237 28.45C38.7541 28.3203 38.8514 28.1707 38.9132 27.9992C38.9751 27.8277 39.0061 27.654 39.0061 27.478C39.0061 27.3131 38.9751 27.1437 38.9132 26.9722C38.8514 26.8007 38.7541 26.6511 38.6237 26.5214C38.4933 26.3916 38.3297 26.3213 38.1308 26.3125H32.6295C32.3577 26.3235 32.2228 26.4576 32.2228 26.7171V32.58L32.225 32.5778Z" fill="white"/>
<path id="Vector_4" d="M21.8789 30.9898C21.8789 30.6995 21.9806 30.4532 22.1839 30.2509C22.3873 30.0486 22.6348 29.9474 22.9266 29.9474H25.318L24.9114 28.7973C24.7456 28.3728 24.5798 27.9704 24.4185 27.5921C24.2571 27.2139 24.0715 26.8686 23.8637 26.5585C23.6758 26.2485 23.4614 26.0813 23.2227 26.0615C22.973 26.0813 22.7475 26.2485 22.5508 26.5585C22.3519 26.8686 22.1729 27.2139 22.0115 27.5921C21.8502 27.9704 21.6866 28.3728 21.5186 28.7973L20.0333 32.8393C19.9295 33.057 19.7969 33.2351 19.6355 33.3759C19.4742 33.5166 19.231 33.5848 18.9083 33.5848C18.6055 33.5848 18.358 33.4814 18.1657 33.2747C17.9734 33.068 17.8872 32.8195 17.9071 32.5292C17.9181 32.395 17.9491 32.2697 17.9999 32.1553L19.7195 27.7395C20.1991 26.5783 20.6787 25.6393 21.1562 24.9246C21.6247 24.2187 22.3121 23.8624 23.2183 23.8514C24.1135 23.8624 24.7986 24.2165 25.2738 24.9158C25.7468 25.6151 26.2242 26.5563 26.7039 27.7373L28.4234 32.1531C28.4765 32.2675 28.5074 32.3906 28.5163 32.527C28.5362 32.8173 28.4522 33.0658 28.2577 33.2725C28.0654 33.4792 27.8178 33.5826 27.515 33.5826C27.1702 33.5826 26.9183 33.5122 26.7569 33.3737C26.5956 33.2329 26.463 33.0548 26.3591 32.8371L26.0629 32.0278H22.9221C22.6304 32.0278 22.385 31.9244 22.1883 31.7177C21.9806 31.522 21.8767 31.2779 21.8767 30.9876L21.8789 30.9898Z" fill="white"/>
<path id="Vector_5" d="M11.5748 33.7588C11.0333 33.7588 10.4985 33.6972 9.97242 33.5718C9.44638 33.4465 8.94244 33.264 8.46503 33.0199C7.98541 32.7758 7.56325 32.4525 7.19856 32.0478C6.83387 31.6432 6.63495 31.1616 6.604 30.6008V29.7146C6.604 29.4243 6.7101 29.1824 6.92449 28.991C7.13667 28.7997 7.39085 28.703 7.6826 28.703C8.3081 28.7557 8.64627 29.0922 8.69932 29.7146V30.1192C8.71921 30.4403 8.84298 30.7086 9.06622 30.9197C9.28945 31.133 9.53921 31.3001 9.81549 31.4255C10.0918 31.5508 10.3791 31.6432 10.6753 31.7048C10.9714 31.7664 11.272 31.7971 11.5748 31.7971C11.8776 31.7971 12.176 31.7664 12.4744 31.7048C12.7706 31.6432 13.0579 31.5486 13.3342 31.4255C13.6105 31.3001 13.8602 31.133 14.0835 30.9197C14.3067 30.7064 14.4305 30.4403 14.4504 30.1192V24.9886C14.4504 24.6983 14.5565 24.4564 14.7709 24.2651C14.9853 24.0738 15.2372 23.977 15.529 23.977C16.1545 24.0298 16.4971 24.3663 16.5612 24.9886V30.6008C16.5302 31.1616 16.3291 31.6432 15.96 32.0478C15.5909 32.4525 15.1665 32.7758 14.6869 33.0199C14.2072 33.264 13.7055 33.4465 13.1795 33.5718C12.6534 33.6972 12.1186 33.7588 11.5771 33.7588H11.5748Z" fill="white"/>
</g>
</svg>
