<svg width="44" height="44" viewBox="0 0 44 44" fill="none" xmlns="http://www.w3.org/2000/svg">
<g id="Group 14">
<g id="Group">
<path id="Vector" d="M28.6526 9.25417C26.0788 7.79658 23.1884 7.87719 20.5742 9.16013" stroke="#06518E" stroke-width="2.5" stroke-miterlimit="10" stroke-linecap="round"/>
<path id="Vector_2" d="M21.9431 12.7873C18.8842 12.3171 17.0246 10.8192 17.0246 10.8192C13.5278 7.80332 9.00013 7.15177 5.34834 9.98634C1.69656 12.8209 0.955422 18.1206 3.50224 22.0366C3.50224 22.0366 8.02991 29.0558 8.49481 36.4109C8.49481 36.4109 8.46112 40.374 11.9108 41.5629C11.9108 41.5629 12.9821 42.0666 13.5952 41.9927C14.8147 41.845 15.0505 40.0784 14.9292 35.39C14.9292 35.39 14.6799 28.5924 17.5501 28.5924C20.4204 28.5924 20.1711 35.39 20.1711 35.39C20.0498 40.0717 20.2789 41.8383 21.5051 41.9927C22.1115 42.0666 23.1895 41.5629 23.1895 41.5629C26.6459 40.3807 26.6055 36.4109 26.6055 36.4109C26.619 36.1557 26.6459 35.8937 26.6729 35.6385" stroke="#06518E" stroke-width="2.5" stroke-miterlimit="10" stroke-linecap="round"/>
</g>
<g id="Group_2">
<path id="Vector_3" d="M39.5674 41.9917H29.4004" stroke="#06518E" stroke-width="2.5" stroke-miterlimit="10" stroke-linecap="round"/>
<path id="Vector_4" d="M30.1279 31.9576V13.6941L34.4804 9.36169H34.4939L38.8329 13.6941L38.8397 31.9576" stroke="#06518E" stroke-width="2.5" stroke-linejoin="round"/>
<path id="Vector_5" d="M38.6099 26.9528H35.834" stroke="#06518E" stroke-width="2.5" stroke-miterlimit="10" stroke-linecap="round"/>
<path id="Vector_6" d="M38.6099 22.4929H35.834" stroke="#06518E" stroke-width="2.5" stroke-miterlimit="10" stroke-linecap="round"/>
<path id="Vector_7" d="M38.6099 18.033H35.834" stroke="#06518E" stroke-width="2.5" stroke-miterlimit="10" stroke-linecap="round"/>
<path id="Vector_8" d="M41.9995 31.9233H26.9746" stroke="#06518E" stroke-width="2.5" stroke-miterlimit="10" stroke-linecap="round"/>
<g id="Group_3">
<path id="Vector_9" d="M36.8047 34.9794V42.0053" stroke="#06518E" stroke-width="2.5" stroke-miterlimit="10"/>
<path id="Vector_10" d="M32.1621 34.9794V41.9986" stroke="#06518E" stroke-width="2.5" stroke-miterlimit="10"/>
</g>
<path id="Vector_11" d="M34.4873 9.32151V2" stroke="#06518E" stroke-width="2.5" stroke-miterlimit="10" stroke-linecap="round"/>
</g>
</g>
</svg>
