<svg width="45" height="46" viewBox="0 0 45 46" fill="none" xmlns="http://www.w3.org/2000/svg">
<path d="M38.7724 44.0002C38.4961 42.4054 38.1068 39.8185 38.2575 37.2945C38.2575 37.2945 39.1742 33.1568 41.0139 30.5134C41.0139 30.5134 46.8783 20.5113 38.1382 14.0755C38.1382 14.0755 30.4091 8.343 21.0537 13.6486C21.0537 13.6486 15.836 15.9089 16.9411 23.1295C16.9411 23.1295 17.1608 25.1513 16.5267 26.0931L13.0733 30.1555C13.0733 30.1555 12.615 31.361 13.99 31.4803L16.0934 31.9136C16.0934 31.9136 16.9725 33.6277 17.0604 34.9525C17.1483 36.271 16.8406 37.9035 16.8406 37.9035C16.8406 37.9035 16.0934 39.8876 17.2676 40.7541C17.4999 40.8106 18.3601 41.7901 24.5133 40.4653C24.5133 40.4653 25.1098 40.7478 25.4865 43.9625" stroke="#06518E" stroke-width="2.5" stroke-linecap="round" stroke-linejoin="round"/>
<path d="M17.3369 35.0278L19.9803 35.0718" stroke="#06518E" stroke-width="2.5" stroke-linecap="round" stroke-linejoin="round"/>
<path d="M14.3912 2.00003L16.8476 6.53577L14.165 6.09626L16.4091 10.7487" stroke="#06518E" stroke-width="2.5" stroke-miterlimit="10" stroke-linecap="round"/>
<path d="M10.5854 20.8354L5.42376 20.9728L7.1511 23.0793L2 23.4622" stroke="#06518E" stroke-width="2.5" stroke-miterlimit="10" stroke-linecap="round"/>
<path d="M13.1934 14.3222L8.72367 11.7416L8.96774 14.4708L4.49805 11.8903" stroke="#06518E" stroke-width="2.5" stroke-miterlimit="10" stroke-linecap="round"/>
</svg>
