<svg width="31" height="42" viewBox="0 0 31 42" fill="none" xmlns="http://www.w3.org/2000/svg">
<path d="M18.4926 21.4074C12.6253 14.5107 12.0785 12.021 12.027 11.6736C11.9755 12.0146 11.4351 14.5107 5.56141 21.4074C-1.29663 29.462 2.58916 39.9743 11.9755 40H12.0785C21.4005 39.9743 25.3507 29.462 18.4926 21.4074Z" stroke="#06518E" stroke-width="2.5" stroke-linecap="round" stroke-linejoin="round"/>
<path d="M6.49414 30.2211C6.49414 30.2211 6.53918 33.2448 9.24765 34.7759" stroke="#06518E" stroke-width="2.5" stroke-linecap="round" stroke-linejoin="round"/>
<path d="M27.0595 7.05481C24.1635 3.47624 23.8939 2.17794 23.8689 2C23.8438 2.17794 23.5742 3.46965 20.6782 7.05481C17.2933 11.2331 19.2114 16.6965 23.8438 16.7097H23.8939C28.4949 16.6965 30.4444 11.2397 27.0595 7.05481Z" stroke="#06518E" stroke-width="2.5" stroke-linecap="round" stroke-linejoin="round"/>
</svg>
