<svg width="107" height="50" viewBox="0 0 107 50" fill="none" xmlns="http://www.w3.org/2000/svg">
<path d="M7.96597 43.0396V49.8841H12.0263V49.188H8.77804V43.0396H7.96597Z" fill="#2F96D0"/>
<path d="M17.092 44.3928L18.4841 47.7571H15.7386L17.092 44.3928ZM16.9373 42.9233L13.9598 49.8839H14.8105L15.3906 48.4918H18.7548L19.3349 49.8839H20.1856L17.2467 42.9233H16.9373Z" fill="#2F96D0"/>
<path d="M26.0247 43.2328C26.4114 43.4648 26.6821 43.7355 26.9141 44.0835L26.3341 44.5476C25.9474 43.9675 25.4447 43.6968 24.7486 43.6968C24.4006 43.6968 24.1299 43.7742 23.8979 43.9675C23.6659 44.1609 23.5499 44.3929 23.5499 44.7022C23.5499 44.8569 23.5885 44.9729 23.6272 45.0889C23.6659 45.205 23.7819 45.321 23.8979 45.3983C24.0139 45.4756 24.1299 45.553 24.2073 45.6303C24.3233 45.669 24.4393 45.7463 24.6713 45.8623L25.4447 46.2104C25.9861 46.4811 26.3728 46.7517 26.6435 47.0224C26.9141 47.3318 27.0302 47.6798 27.0302 48.1052C27.0302 48.6852 26.8368 49.1493 26.4114 49.4973C25.9861 49.8453 25.4447 50.0387 24.826 50.0387C24.2846 50.0387 23.8206 49.9227 23.3565 49.652C22.9312 49.3813 22.5445 49.0333 22.2738 48.5692L22.8925 48.1052C23.3952 48.8786 24.0526 49.2653 24.826 49.2653C25.2513 49.2653 25.5607 49.1493 25.8314 48.9559C26.1021 48.7626 26.2181 48.4532 26.2181 48.1439C26.2181 47.8345 26.1407 47.6411 25.9474 47.4478C25.7541 47.2931 25.4834 47.0998 25.058 46.9064L24.2846 46.5584C23.7819 46.3264 23.4339 46.0557 23.1632 45.785C22.8925 45.5143 22.7378 45.1663 22.7378 44.7022C22.7378 44.1609 22.9312 43.7355 23.3565 43.3875C23.7432 43.0394 24.2459 42.8848 24.826 42.8848C25.2513 42.9234 25.638 43.0394 26.0247 43.2328Z" fill="#2F96D0"/>
<path d="M29.1957 43.0396V43.7743H31.6319V49.8841H32.4439V43.7743H34.8415V43.0396H29.1957Z" fill="#2F96D0"/>
<path d="M38.167 43.0396H37.355V49.9228H38.167V43.0396Z" fill="#2F96D0"/>
<path d="M46.2103 43.3101C46.7131 43.5808 47.0998 43.9288 47.4091 44.3929L46.7904 44.8569C46.249 44.0448 45.5143 43.6581 44.5475 43.6581C43.7742 43.6581 43.1168 43.9288 42.5754 44.4702C42.034 45.0116 41.802 45.669 41.802 46.481C41.802 47.2931 42.0727 47.9505 42.5754 48.4919C43.1168 49.0332 43.7355 49.3039 44.5475 49.3039C45.4756 49.3039 46.249 48.9172 46.7904 48.1052L47.4091 48.6079C47.1384 49.0719 46.7131 49.4199 46.2103 49.6906C45.7076 49.9613 45.1663 50.0773 44.5475 50.0773C43.5421 50.0773 42.6914 49.7293 42.034 49.0332C41.338 48.3372 40.9899 47.5251 40.9899 46.5197C40.9899 45.5143 41.338 44.6636 42.034 44.0062C42.7301 43.3101 43.5808 42.9621 44.5475 42.9621C45.1276 42.9234 45.7076 43.0394 46.2103 43.3101Z" fill="#2F96D0"/>
<path d="M57.7339 43.2328C58.1206 43.4648 58.43 43.7355 58.6233 44.0835L58.0433 44.5476C57.6566 43.9675 57.1539 43.6968 56.4578 43.6968C56.1098 43.6968 55.8391 43.7742 55.6071 43.9675C55.3751 44.1609 55.2591 44.3929 55.2591 44.7022C55.2591 44.8569 55.2977 44.9729 55.3364 45.0889C55.3751 45.205 55.4524 45.321 55.6071 45.3983C55.7231 45.4756 55.8391 45.553 55.9165 45.6303C55.9938 45.669 56.1485 45.7463 56.3805 45.8623L57.1539 46.2104C57.6953 46.4811 58.1206 46.7517 58.3526 47.0224C58.6233 47.3318 58.7393 47.6798 58.7393 48.1052C58.7393 48.6852 58.546 49.1493 58.1206 49.4973C57.6953 49.8453 57.1926 50.0387 56.5352 50.0387C55.9938 50.0387 55.5298 49.9227 55.0657 49.652C54.6404 49.3813 54.2537 49.0333 53.983 48.5692L54.6017 48.1052C55.1044 48.8786 55.7618 49.2653 56.5352 49.2653C56.9605 49.2653 57.2699 49.1493 57.5406 48.9559C57.8113 48.7626 57.9273 48.4532 57.9273 48.1439C57.9273 47.8345 57.8499 47.6411 57.6566 47.4478C57.4632 47.2931 57.1926 47.0998 56.7672 46.9064L55.9938 46.5584C55.4911 46.3264 55.1431 46.0557 54.8724 45.785C54.6017 45.5143 54.447 45.1663 54.447 44.7022C54.447 44.1609 54.6404 43.7355 55.0657 43.3875C55.4524 43.0394 55.9551 42.8848 56.5352 42.8848C56.9219 42.9234 57.3472 43.0394 57.7339 43.2328Z" fill="#2F96D0"/>
<path d="M67.0147 47.1771C67.0147 48.0665 66.744 48.7626 66.2413 49.2653C65.7386 49.768 65.0812 50.0387 64.2691 50.0387C63.4571 50.0387 62.7997 49.8067 62.297 49.304C61.7943 48.8012 61.5236 48.1052 61.5236 47.2158V43.0781H62.3357V47.2545C62.3357 47.9118 62.529 48.4146 62.877 48.7626C63.2251 49.1106 63.6891 49.2653 64.2691 49.2653C64.8492 49.2653 65.2746 49.0719 65.6613 48.7626C66.0093 48.4146 66.2026 47.9118 66.2026 47.2545V43.0781H67.0147V47.1771Z" fill="#2F96D0"/>
<path d="M74.594 49.884L72.4671 46.9837H70.9977V49.884H70.1856V43.0007H72.5831C73.2405 43.0007 73.7819 43.1941 74.1686 43.5421C74.5553 43.9288 74.7486 44.3928 74.7486 44.9729C74.7486 45.4369 74.6326 45.8236 74.3619 46.1717C74.0913 46.5197 73.7432 46.7517 73.3179 46.8677L75.522 49.8453H74.594V49.884ZM70.9977 46.2877H72.5831C73.0472 46.2877 73.3565 46.1717 73.6272 45.9396C73.8592 45.7076 73.9752 45.3983 73.9752 45.0116C73.9752 44.6249 73.8592 44.3155 73.5885 44.0835C73.3565 43.8515 73.0085 43.7355 72.5831 43.7355H70.9977V46.2877Z" fill="#2F96D0"/>
<path d="M82.5599 43.2715C83.0626 43.5035 83.4493 43.8515 83.7587 44.3155L83.14 44.7796C82.5986 44.0062 81.8639 43.6582 80.9745 43.6582C80.2011 43.6582 79.5437 43.9288 79.0023 44.4702C78.4996 45.0116 78.2289 45.669 78.2289 46.4424C78.2289 47.2544 78.4996 47.9118 79.0023 48.4532C79.5437 48.9946 80.2011 49.2653 80.9745 49.2653C81.4772 49.2653 81.9412 49.1493 82.3279 48.9172C82.7146 48.6852 83.024 48.4145 83.2946 48.0278V47.0998H80.9358V46.4037H84.1067V48.2212C83.7974 48.7626 83.372 49.1879 82.7919 49.4973C82.2506 49.8067 81.6319 50 80.9358 50C79.9304 50 79.0796 49.652 78.3836 48.9559C77.6875 48.2599 77.3395 47.4478 77.3395 46.4424C77.3395 45.437 77.6875 44.5862 78.3836 43.9288C79.0796 43.2328 79.9304 42.8848 80.9358 42.8848C81.5545 42.9234 82.0959 43.0394 82.5599 43.2715Z" fill="#2F96D0"/>
<path d="M86.9683 43.0396V49.8841H91.4927V49.188H87.7804V46.5972H90.5259V45.8624H87.7804V43.7743H91.3766V43.0396H86.9683Z" fill="#2F96D0"/>
<path d="M98.6465 49.884L96.5197 46.9837H95.0503V49.884H94.2382V43.0007H96.6357C97.2931 43.0007 97.8345 43.1941 98.2212 43.5421C98.6079 43.9288 98.8399 44.3928 98.8399 44.9729C98.8399 45.4369 98.7239 45.8236 98.4532 46.1717C98.1825 46.5197 97.8345 46.7517 97.4091 46.8677L99.6133 49.8453H98.6465V49.884ZM95.0503 46.2877H96.6357C97.0611 46.2877 97.4091 46.1717 97.6411 45.9396C97.8731 45.7076 97.9892 45.3983 97.9892 45.0116C97.9892 44.6249 97.8731 44.3155 97.6411 44.0835C97.4091 43.8515 97.0611 43.7355 96.6357 43.7355H95.0503V46.2877Z" fill="#2F96D0"/>
<path d="M105.839 43.0396L103.944 46.2491L102.088 43.0396H101.16L103.558 47.0612V49.8841H104.37V47.0612L106.729 43.0396H105.839Z" fill="#2F96D0"/>
<path d="M4.64037 43.5808C5.02707 43.9675 5.22041 44.4315 5.22041 45.0116C5.22041 45.5916 5.02707 46.0943 4.64037 46.4423C4.25367 46.829 3.71229 47.0224 3.05491 47.0224H1.46945V49.884H0.618713V43.0007H3.05491C3.71229 43.0394 4.25367 43.2328 4.64037 43.5808ZM1.46945 43.7741V46.3263H3.05491C3.48028 46.3263 3.8283 46.2103 4.06032 45.9783C4.29234 45.7463 4.40835 45.4369 4.40835 45.0502C4.40835 44.6635 4.29234 44.3542 4.06032 44.1222C3.8283 43.8901 3.48028 43.7741 3.05491 43.7741H1.46945Z" fill="#2F96D0"/>
<path d="M58.6234 24.3232C57.7726 23.7432 56.8445 23.4338 55.7618 23.4338H54.7177V38.5924H66.8987L60.7502 27.2235C59.9381 25.754 59.2421 24.7873 58.6234 24.3232Z" fill="#06518E"/>
<path d="M62.2583 16.8214C63.0317 16.6667 63.8438 16.1254 64.3465 15.468C64.8492 14.8493 65.0812 14.1145 65.0812 13.3025C65.0812 12.1037 64.6945 11.1756 63.9211 10.5183C63.1477 9.86087 61.7169 9.55151 59.5901 9.55151H54.4857V17.1695H59.3968C59.8995 17.1695 60.7115 17.1695 62.2583 16.8214Z" fill="#06518E"/>
<path d="M13.5731 0.115967V37.703H42.8074V29.157H25.2127V21.771H42.8074V14.1144H25.2127V8.12061H42.8074V0.115967H13.5731Z" fill="#06518E"/>
<path d="M89.7912 23.2405H81.6705L85.6922 9.9768L89.7912 23.2405ZM106.381 37.5483L92.2661 0H79.621L79.5824 0.116009H79.505L76.4888 8.15932C76.6435 8.89404 76.7208 9.70611 76.7208 10.5182C76.7208 12.6063 76.2954 14.3852 75.406 15.9319C75.1354 16.396 74.5553 17.1307 73.8593 17.9041C73.4339 18.3295 72.3125 19.5669 72.3125 19.5669C71.5391 20.379 70.7657 21.0363 70.3016 21.3844L78.3449 34.4548L79.2343 31.3998C79.273 31.3612 79.3117 31.3612 79.3504 31.3225H92.4594L94.1996 37.471C94.2382 37.4323 94.3542 37.5483 94.3542 37.5483H106.381Z" fill="#06518E"/>
<path d="M8.93271 6.72846C8.93271 7.88856 7.96597 8.8553 6.76721 8.8553H2.16551C0.966744 8.8553 0 7.88856 0 6.72846V2.55213C0 1.39204 0.966744 0.425293 2.16551 0.425293H6.76721C7.96597 0.425293 8.93271 1.39204 8.93271 2.55213V6.72846Z" fill="#CCEBF6"/>
<path d="M9.01005 16.2414C9.01005 17.4015 8.0433 18.3682 6.84454 18.3682H2.24284C1.04408 18.3682 0.0773315 17.4015 0.0773315 16.2414V12.0651C0.0773315 10.905 1.04408 9.93823 2.24284 9.93823H6.84454C8.0433 9.93823 9.01005 10.905 9.01005 12.0651V16.2414Z" fill="#5FCBEC"/>
<path d="M9.01005 35.4215C9.01005 36.5816 8.0433 37.5483 6.84454 37.5483H2.24284C1.04408 37.5483 0.0773315 36.5816 0.0773315 35.4215V31.2838C0.0773315 30.1237 1.04408 29.157 2.24284 29.157H6.84454C8.0433 29.157 9.01005 30.1237 9.01005 31.2838V35.4215Z" fill="#06518E"/>
<path d="M8.93271 25.6766C8.93271 26.8367 7.96597 27.8034 6.76721 27.8034H2.16551C0.966744 27.8034 0 26.8367 0 25.6766V21.5389C0 20.3789 0.966744 19.4121 2.16551 19.4121H6.76721C7.96597 19.4121 8.93271 20.3789 8.93271 21.5389V25.6766Z" fill="#2F96D0"/>
</svg>
