<svg width="20" height="22" viewBox="0 0 20 22" fill="none" xmlns="http://www.w3.org/2000/svg">
<path d="M18.625 2.98438L11.9219 11L18.625 19.0625C19.1406 19.7188 19.0938 20.6562 18.4375 21.1719C17.7812 21.6875 16.8438 21.6406 16.3281 20.9844L10 13.3438L3.625 20.9844C3.10938 21.6406 2.17188 21.6875 1.51562 21.1719C0.859375 20.6562 0.8125 19.7188 1.32812 19.0625L8.03125 11L1.32812 2.98438C0.8125 2.32812 0.859375 1.39062 1.51562 0.875C2.17188 0.359375 3.10938 0.40625 3.625 1.0625L10 8.65625L16.3281 1.0625C16.8438 0.40625 17.7812 0.359375 18.4375 0.875C19.0938 1.39062 19.1406 2.32812 18.625 2.98438Z" fill="white"/>
</svg>
