<svg xmlns="http://www.w3.org/2000/svg" width="28.755" height="28.755" viewBox="0 0 28.755 28.755">
  <g id="Group_18172" data-name="Group 18172" transform="translate(-1009 -2196)">
    <path id="circle-chevron-right" d="M0,15.121A14.377,14.377,0,1,1,7.189,27.589,14.27,14.27,0,0,1,0,15.121Zm13.535,6.8,5.841-5.841a1.392,1.392,0,0,0,0-1.91L13.535,8.381a1.35,1.35,0,0,0-1.91,1.91l4.886,4.886-4.886,4.886a1.23,1.23,0,0,0,0,1.853A1.292,1.292,0,0,0,13.535,21.916Z" transform="translate(1009 2195.229)" fill="#06518e"/>
  </g>
</svg>
